<svg width="17" height="16" xmlns="http://www.w3.org/2000/svg" xmlns:xlink="http://www.w3.org/1999/xlink" xmlns:svgjs="http://svgjs.com/svgjs" viewBox="0 0.425 17 15.149"><svg xmlns="http://www.w3.org/2000/svg" width="17" height="16" viewBox="1.982 1.116 16.011 14.268" fill="#95e1d3"><path fill="#95E1D3" paint-order="stroke fill markers" fill-rule="evenodd" d="M10.416 13.358c-.573 0-1.134-.165-1.676-.243-2.191 2.77-5.647 2.225-5.647 2.225 2.44-1.155 2.391-3.069 1.957-3.324-1.916-1.126-3.068-2.84-3.068-4.76 0-3.391 3.727-6.14 8.434-6.14 4.708 0 7.577 2.749 7.577 6.14 0 3.391-2.87 6.102-7.577 6.102zM6.242 5.875a1.5 1.5 0 1 0 0 3 1.5 1.5 0 0 0 0-3zm3.75 0a1.5 1.5 0 1 0 0 3 1.5 1.5 0 0 0 0-3zm3.75 0a1.5 1.5 0 1 0 0 3 1.5 1.5 0 0 0 0-3z"/></svg></svg>